<?xml version="1.0" standalone="no"?>
<!DOCTYPE svg PUBLIC "-//W3C//DTD SVG 20010904//EN"
 "http://www.w3.org/TR/2001/REC-SVG-20010904/DTD/svg10.dtd">
<svg version="1.0" xmlns="http://www.w3.org/2000/svg"
 width="1276.000000pt" height="1276.000000pt" viewBox="0 0 1276.000000 1276.000000"
 preserveAspectRatio="xMidYMid meet">
<metadata>
Created by potrace 1.14, written by Peter Selinger 2001-2017
</metadata>
<g transform="translate(0.000000,1276.000000) scale(0.100000,-0.100000)"
fill="#000000" stroke="none">
<path d="M6121 11880 c-63 -5 -128 -14 -144 -20 -17 -5 -53 -10 -81 -11 -28 0
-87 -6 -131 -14 -44 -7 -122 -21 -173 -29 -51 -9 -101 -20 -112 -26 -10 -5
-33 -10 -50 -10 -17 0 -56 -8 -88 -19 -31 -10 -85 -24 -120 -31 -34 -7 -65
-17 -68 -21 -3 -5 -16 -9 -28 -9 -13 0 -43 -7 -67 -16 -24 -9 -64 -22 -89 -29
-43 -12 -142 -47 -185 -65 -56 -22 -156 -65 -203 -86 -29 -13 -57 -24 -62 -24
-6 0 -10 -4 -10 -10 0 -5 -7 -10 -15 -10 -14 0 -53 -18 -65 -30 -3 -3 -34 -20
-70 -39 -77 -40 -244 -149 -248 -162 -2 -5 -9 -9 -16 -9 -7 0 -21 -8 -32 -18
-10 -9 -39 -33 -64 -52 -126 -96 -430 -435 -430 -479 0 -6 -4 -11 -9 -11 -5 0
-11 -8 -14 -17 -4 -10 -18 -36 -31 -58 -14 -22 -35 -59 -47 -82 -12 -24 -25
-43 -30 -43 -5 0 -9 -5 -9 -10 0 -6 -44 -54 -97 -108 -54 -54 -127 -129 -163
-168 -65 -69 -95 -97 -161 -144 -74 -53 -258 -250 -259 -277 0 -6 -3 -13 -7
-15 -12 -5 -73 -108 -73 -122 0 -6 -9 -29 -20 -51 -11 -22 -20 -51 -20 -66 0
-15 -7 -42 -15 -62 -8 -19 -17 -83 -21 -143 -4 -74 -12 -122 -25 -151 -10 -24
-19 -51 -19 -61 0 -10 -3 -22 -7 -26 -12 -12 -33 -80 -33 -108 0 -15 -4 -29
-8 -32 -5 -3 -14 -31 -21 -63 -7 -32 -19 -80 -27 -108 -7 -27 -18 -84 -24
-125 -5 -41 -14 -95 -20 -120 -5 -25 -14 -128 -20 -230 -6 -102 -14 -234 -18
-295 l-7 -110 -60 -6 c-33 -3 -80 -16 -105 -28 -50 -26 -130 -98 -130 -118 0
-7 -4 -13 -8 -13 -10 0 -61 -110 -74 -160 -5 -19 -14 -60 -19 -90 -21 -121
-21 -123 -73 -151 -68 -37 -82 -55 -105 -134 -123 -423 -121 -996 6 -1560 13
-60 31 -121 39 -133 9 -13 45 -37 81 -54 68 -32 71 -37 124 -165 8 -18 17 -33
21 -33 5 0 8 -5 8 -11 0 -22 85 -134 155 -204 85 -84 127 -114 177 -129 118
-33 177 -45 258 -52 86 -6 258 9 290 26 13 7 26 0 58 -30 23 -22 44 -40 47
-40 3 0 15 -9 27 -20 12 -11 28 -20 35 -20 8 0 25 -8 40 -17 14 -10 49 -21 77
-25 145 -21 149 -25 159 -123 3 -33 13 -83 21 -110 8 -28 19 -79 26 -114 6
-35 15 -71 19 -80 5 -9 16 -45 25 -81 26 -105 55 -192 92 -280 36 -84 140
-290 147 -290 4 0 7 -5 7 -10 0 -10 68 -122 90 -147 5 -7 10 -15 10 -18 0 -3
17 -27 38 -54 20 -27 46 -61 57 -77 20 -28 65 -81 118 -139 34 -37 31 -57 -10
-70 -17 -6 -40 -18 -51 -28 -10 -9 -26 -17 -35 -17 -9 0 -22 -9 -29 -20 -7
-11 -20 -20 -28 -20 -9 0 -22 -9 -30 -20 -8 -11 -20 -20 -26 -20 -16 0 -124
-117 -124 -134 0 -7 -9 -21 -20 -31 -11 -10 -20 -26 -20 -35 0 -9 -9 -35 -20
-58 -11 -22 -20 -49 -20 -59 0 -10 -7 -40 -15 -67 -17 -57 -20 -227 -4 -296 5
-25 15 -70 20 -100 6 -30 16 -64 23 -75 7 -11 16 -32 19 -46 6 -24 3 -26 -51
-42 -31 -9 -73 -19 -92 -22 -19 -4 -55 -12 -80 -20 -47 -14 -183 -45 -285 -66
-33 -7 -64 -16 -70 -21 -5 -4 -84 -8 -175 -8 -119 0 -181 -4 -220 -15 -30 -9
-73 -20 -94 -26 -22 -5 -51 -16 -65 -24 -14 -8 -39 -19 -54 -25 -16 -6 -27
-16 -25 -22 5 -15 85 -76 111 -84 9 -4 17 -10 17 -14 0 -4 8 -10 18 -13 60
-20 100 -41 212 -107 69 -41 127 -77 130 -80 9 -10 50 -30 60 -30 6 0 20 -9
32 -20 12 -11 29 -20 37 -20 9 0 27 -9 41 -20 14 -11 32 -20 41 -20 9 0 24 -9
34 -20 10 -11 29 -20 42 -20 12 0 32 -9 43 -20 11 -11 31 -20 44 -20 13 0 26
-7 29 -14 3 -8 22 -18 41 -22 20 -3 36 -9 36 -13 0 -3 15 -12 33 -19 17 -7 50
-22 72 -32 22 -11 52 -20 68 -20 16 0 27 -5 27 -14 0 -16 21 -26 56 -26 13 0
24 -4 24 -10 0 -5 9 -10 19 -10 11 0 23 -4 26 -10 3 -5 20 -10 36 -10 17 0 37
-6 45 -14 7 -8 33 -17 56 -21 63 -10 118 -27 118 -37 0 -4 14 -8 30 -8 17 0
30 -4 30 -8 0 -12 46 -32 72 -32 12 0 29 -7 38 -15 10 -9 41 -18 71 -22 30 -3
69 -15 87 -25 18 -10 44 -18 58 -18 14 0 42 -9 64 -20 22 -11 57 -20 79 -20
21 0 58 -9 82 -20 25 -11 66 -20 93 -20 31 0 56 -6 67 -16 11 -10 43 -18 86
-21 37 -3 92 -13 121 -24 31 -11 79 -19 115 -19 43 0 75 -6 102 -20 31 -16 59
-20 131 -20 l91 0 6 119 c6 149 17 175 73 179 63 5 79 -19 76 -121 -1 -45 -4
-103 -8 -129 -6 -46 -7 -48 -37 -49 -18 0 -41 -4 -51 -8 -44 -17 80 -30 344
-36 154 -3 279 -10 284 -15 6 -6 102 -10 231 -10 121 0 214 4 207 9 -14 9 246
21 455 21 126 0 217 12 228 31 3 4 -21 6 -54 3 -73 -6 -75 -3 -122 137 -32 93
-33 101 -19 127 21 37 63 51 98 31 21 -11 34 -35 60 -109 17 -52 39 -114 48
-138 l16 -42 96 0 c75 0 107 5 141 20 27 13 65 20 103 20 65 0 148 17 148 31
0 5 28 9 63 9 44 0 71 6 95 20 20 12 50 20 79 20 51 0 123 19 123 32 0 4 19 8
43 8 23 0 60 9 82 20 22 11 53 20 70 20 17 0 48 9 70 20 22 11 54 20 72 20 22
0 36 6 43 20 7 13 21 20 41 20 17 0 37 7 45 15 8 8 31 17 52 20 20 4 53 14 72
22 19 9 54 18 78 21 24 3 38 8 32 12 -8 5 -4 9 9 13 14 3 19 1 14 -6 -4 -7 5
-4 20 6 14 9 42 17 62 17 19 0 35 3 35 8 0 12 52 32 82 32 17 0 31 7 38 20 8
14 21 20 45 20 19 0 35 4 35 9 0 5 15 14 32 21 73 28 88 35 88 42 0 5 9 8 21
8 28 0 59 18 59 34 0 9 9 12 26 8 16 -3 35 3 52 15 15 11 40 23 56 27 15 4 30
15 33 25 3 12 11 17 27 14 16 -3 29 3 42 19 11 14 25 23 31 21 7 -3 26 5 42
16 16 12 35 21 43 21 7 0 24 9 38 20 14 11 28 20 31 20 4 0 37 18 73 40 36 22
68 40 72 40 3 0 23 13 43 28 20 15 48 33 64 40 64 28 82 37 87 42 3 3 38 28
78 55 39 26 72 51 72 54 0 9 -113 61 -131 61 -9 0 -34 7 -55 16 -22 9 -84 20
-139 25 -101 8 -219 29 -310 56 -27 8 -72 17 -100 20 -27 3 -58 10 -69 15 -10
6 -53 16 -95 23 -42 7 -101 20 -131 29 -30 9 -72 16 -92 16 -20 0 -40 4 -43
10 -3 5 -17 10 -30 10 -33 0 -39 15 -18 46 9 15 21 52 25 83 4 31 12 79 17
106 15 77 13 216 -4 271 -8 27 -15 65 -15 84 0 19 -9 49 -20 65 -11 17 -20 35
-20 42 0 44 -180 243 -220 243 -5 0 -14 9 -20 20 -6 11 -18 20 -28 20 -9 0
-28 9 -42 20 -14 11 -30 20 -36 20 -6 0 -16 6 -22 13 -8 9 1 25 36 62 50 53
83 93 119 141 12 16 37 50 57 77 20 26 36 50 36 53 0 2 5 10 10 17 52 60 230
385 230 419 0 8 4 18 9 24 10 10 46 106 66 174 7 25 18 59 25 75 6 17 16 50
20 75 5 25 15 70 24 100 30 111 56 237 56 273 0 43 28 77 64 77 14 0 28 5 31
10 3 6 22 10 42 10 40 0 103 20 103 32 0 4 7 8 15 8 18 0 51 18 79 43 59 53
94 75 102 67 32 -32 381 -36 449 -5 16 7 46 17 65 20 56 12 114 51 204 140
100 98 192 232 209 306 11 44 47 79 113 110 76 36 88 55 109 168 9 44 22 95
30 113 7 19 18 72 24 118 6 47 15 105 21 130 5 25 15 151 22 281 18 367 -1
624 -62 839 -10 36 -26 90 -34 121 -17 61 -34 81 -89 104 -43 18 -48 28 -71
140 -32 154 -36 169 -60 221 -41 89 -72 121 -153 159 -62 30 -88 37 -169 42
-85 5 -95 8 -99 27 -5 26 -13 171 -24 436 -6 143 -14 219 -25 250 -20 58 -21
177 -1 217 25 51 46 184 35 223 -6 19 -10 54 -10 77 0 42 -12 89 -70 268 -34
105 -56 168 -75 210 -7 17 -19 45 -26 63 -8 17 -17 32 -21 32 -5 0 -8 6 -8 14
0 18 -100 220 -112 224 -4 2 -8 10 -8 18 0 7 -9 28 -20 46 -29 47 -26 60 7 43
24 -13 30 -13 43 0 13 13 11 22 -18 78 -18 34 -43 80 -57 102 -14 22 -28 47
-32 55 -4 8 -15 24 -25 34 -10 11 -18 26 -18 33 0 7 -9 18 -20 25 -11 7 -20
17 -20 22 0 12 4 8 -187 202 -87 89 -187 185 -223 215 -36 30 -72 61 -80 69
-8 9 -31 27 -50 40 -19 13 -37 27 -40 30 -24 26 -263 190 -278 190 -5 0 -17 9
-27 20 -10 11 -26 20 -37 20 -10 0 -18 3 -18 8 0 4 -30 23 -67 42 -38 19 -70
37 -73 40 -12 12 -51 30 -65 30 -8 0 -15 3 -15 8 0 8 -49 32 -67 32 -7 0 -13
5 -13 10 0 6 -6 10 -13 10 -8 0 -41 14 -75 30 -34 17 -67 30 -72 30 -5 0 -24
9 -42 20 -18 11 -43 20 -55 20 -12 0 -24 4 -27 8 -2 4 -51 23 -108 42 -57 18
-116 39 -133 46 -16 7 -48 15 -70 19 -50 8 -108 26 -102 31 2 2 74 11 161 19
154 15 224 34 210 57 -9 14 -110 58 -134 58 -10 0 -21 4 -24 9 -6 8 -21 13
-101 31 -22 5 -67 16 -100 24 -33 9 -72 16 -87 16 -16 0 -28 4 -28 9 0 14 -83
31 -149 31 -33 0 -86 7 -118 15 -32 8 -114 20 -183 25 -69 6 -147 15 -175 21
-65 13 -854 20 -1004 9z m1014 -209 l160 -17 -60 -17 c-155 -43 -260 -82 -263
-99 -4 -23 41 -34 193 -47 66 -6 143 -17 170 -25 28 -7 95 -21 150 -31 350
-60 745 -193 1080 -363 335 -170 587 -352 850 -616 133 -133 141 -156 23 -65
-38 30 -62 36 -73 19 -11 -18 -26 -11 -83 43 -264 247 -668 485 -1067 629
-164 59 -341 113 -480 147 -44 11 -100 24 -125 31 -25 6 -74 15 -110 21 -36 6
-93 17 -128 25 -35 8 -107 19 -160 24 -53 6 -115 14 -137 20 -77 19 -423 35
-740 35 -334 -1 -561 -13 -730 -39 -55 -8 -131 -19 -170 -25 -80 -11 -258 -45
-325 -62 -316 -77 -509 -139 -725 -231 -139 -59 -357 -166 -405 -198 -54 -36
-53 -30 5 29 230 239 658 479 1099 617 339 107 777 186 1171 213 192 13 684 3
880 -18z m-1180 -1276 c-22 -13 -43 -25 -47 -25 -9 0 -196 -114 -266 -161
-113 -77 -232 -199 -194 -199 4 0 45 27 92 61 135 96 147 101 415 174 72 20
159 40 195 46 36 5 106 23 157 39 240 77 514 99 751 61 71 -12 146 -21 168
-21 21 -1 79 -11 128 -24 l90 -23 -60 -16 c-32 -9 -102 -29 -154 -45 -197 -61
-408 -78 -595 -47 -137 22 -165 18 -75 -12 149 -49 212 -57 425 -58 153 0 220
4 285 18 97 20 284 70 349 94 38 14 54 14 110 4 90 -17 253 -70 346 -112 22
-10 78 -34 125 -54 189 -81 448 -237 603 -362 82 -67 95 -85 36 -49 -215 133
-590 193 -894 142 -140 -23 -249 -62 -490 -176 -336 -157 -397 -181 -520 -201
-170 -29 -631 -80 -825 -92 -400 -24 -787 39 -1010 165 -138 79 -73 105 100
40 391 -147 777 -198 1069 -142 29 5 75 10 101 10 90 0 455 107 619 181 100
46 341 180 341 191 0 5 -8 7 -17 4 -10 -3 -36 -8 -58 -11 -22 -4 -93 -18 -159
-31 -245 -50 -429 -68 -755 -71 -276 -4 -312 -2 -410 17 -130 26 -247 60 -366
107 -49 19 -96 38 -104 41 -29 11 9 -36 61 -74 147 -110 353 -186 578 -215 47
-5 89 -14 94 -19 17 -17 -45 -22 -187 -17 -212 8 -533 85 -729 174 -43 20 -78
40 -78 45 0 5 16 29 35 52 19 24 35 51 35 60 0 40 -32 25 -132 -60 -115 -98
-193 -150 -318 -215 -218 -113 -495 -188 -695 -189 -79 0 -227 18 -290 35 -27
7 -76 18 -107 25 -32 6 -60 14 -62 18 -5 9 57 77 83 92 15 8 32 5 72 -10 177
-70 404 -65 659 15 229 72 619 283 765 415 51 45 114 91 295 215 302 206 290
199 355 206 103 10 103 11 60 -16z m-228 -20 c-75 -27 -90 -35 -392 -210 -484
-281 -712 -388 -950 -444 -169 -41 -345 -50 -473 -24 l-42 8 48 42 c120 103
284 213 388 262 23 11 45 24 48 30 4 6 17 11 28 11 12 0 35 4 52 9 17 5 51 15
76 21 49 13 168 67 187 86 7 7 34 20 60 29 27 10 71 25 98 35 97 35 293 85
415 105 41 7 104 18 140 24 143 24 258 38 320 39 l65 1 -68 -24z m-17 -153 c0
-5 -11 -14 -25 -20 -32 -15 -35 -15 -35 -2 0 6 9 10 19 10 11 0 23 5 26 10 8
12 15 13 15 2z m2667 -567 c65 -9 165 -27 223 -41 158 -39 456 -161 438 -180
-2 -2 -26 4 -53 12 -158 48 -488 79 -745 70 -96 -3 -320 -7 -498 -8 -311 -3
-321 -2 -270 13 29 9 96 32 148 51 234 86 502 116 757 83z m-3380 -189 c83
-53 151 -91 178 -98 11 -3 52 -18 90 -32 281 -105 627 -187 910 -217 147 -15
471 -15 620 0 201 22 502 84 569 118 25 13 27 16 13 30 -13 14 -25 13 -113 -1
-55 -8 -151 -23 -214 -33 -213 -32 -898 -20 -875 17 2 4 42 10 87 14 46 4 259
29 473 56 602 76 690 83 975 84 188 0 290 -4 390 -17 282 -38 513 -95 678
-168 89 -40 237 -130 289 -176 l43 -38 25 -300 c45 -533 65 -669 120 -818 19
-51 45 -123 59 -160 40 -109 56 -204 56 -344 0 -133 -15 -628 -29 -933 -9
-183 -7 -192 35 -235 17 -16 16 -28 -4 -238 -13 -122 -24 -253 -25 -292 -4
-82 -31 -249 -58 -356 -10 -41 -19 -86 -19 -99 0 -100 -171 -476 -316 -696
-21 -32 -71 -93 -111 -134 -80 -84 -98 -86 -82 -8 6 26 9 61 7 78 -3 29 -8 23
-70 -77 -99 -160 -193 -263 -241 -263 -17 0 -18 7 -15 70 2 39 1 70 -2 70 -3
0 -28 -47 -55 -105 -28 -57 -52 -105 -55 -105 -3 0 -16 28 -29 63 -105 277
-307 422 -641 458 -195 21 -311 10 -955 -97 -156 -26 -305 -41 -305 -31 0 3
22 13 49 22 35 11 74 40 148 108 93 86 103 93 162 105 49 10 71 10 99 1 45
-14 64 -29 36 -29 -10 0 -26 -5 -34 -11 -23 -15 149 0 181 17 130 66 143 304
25 449 -35 43 -43 24 -22 -53 28 -99 37 -163 30 -204 -6 -43 -51 -116 -75
-123 -9 -3 -42 6 -73 20 -32 14 -79 29 -105 32 -56 6 -148 -17 -201 -51 -137
-89 -348 -93 -488 -11 -71 42 -169 68 -220 59 -20 -4 -61 -17 -91 -30 -70 -31
-85 -30 -114 9 -53 71 -59 158 -17 281 11 33 20 65 20 73 0 29 -28 10 -62 -42
-64 -98 -76 -236 -27 -330 36 -71 62 -86 176 -101 54 -7 112 -15 128 -18 17
-3 1 5 -35 18 l-65 24 30 12 c38 15 141 8 181 -13 17 -9 66 -50 110 -92 54
-52 94 -81 126 -93 26 -9 44 -20 41 -25 -7 -12 -158 -1 -273 18 -47 8 -155 26
-240 39 -85 14 -211 34 -280 46 -508 83 -879 -14 -1050 -276 -48 -73 -90 -177
-90 -221 0 -13 -4 -23 -9 -23 -10 0 -81 115 -113 185 l-23 50 -3 -65 c-4 -90
-5 -94 -40 -76 -56 29 -205 214 -261 324 -12 23 -23 42 -25 42 -1 0 -1 -36 2
-80 6 -100 -2 -102 -78 -20 -96 104 -184 264 -291 532 -18 47 -54 197 -69 298
-5 30 -16 84 -24 120 -26 109 -47 249 -57 375 -5 66 -14 143 -20 170 -6 29
-15 259 -19 555 -5 278 -12 622 -16 766 -8 314 -4 344 75 542 124 308 135 371
166 931 15 272 24 343 50 446 20 75 62 169 85 190 19 17 13 17 210 -20 124
-23 449 4 620 52 85 23 235 79 285 106 49 26 91 46 97 47 4 0 38 -20 75 -44z
m-1407 -143 c-22 -44 -51 -124 -66 -179 -14 -54 -35 -111 -45 -126 -11 -14
-31 -71 -45 -125 -49 -189 -185 -447 -310 -588 l-26 -30 7 45 c27 180 118 463
204 632 101 200 292 481 313 460 5 -5 -9 -43 -32 -89z m5215 22 c28 -9 84 -23
125 -31 40 -9 133 -35 205 -59 142 -47 159 -60 207 -154 14 -25 29 -55 35 -66
95 -175 170 -381 228 -623 23 -98 20 -115 -12 -67 -14 22 -41 58 -59 80 -31
39 -124 216 -124 236 0 6 7 3 16 -5 19 -20 40 -21 47 -3 13 34 -93 228 -180
332 -54 64 -182 173 -258 218 -69 41 -101 56 -260 123 -63 26 -74 34 -50 34
17 0 53 -7 80 -15z m614 -1166 c143 -213 199 -287 222 -294 23 -8 26 -25 4
-25 -9 0 -34 -9 -56 -21 l-41 -20 -36 27 c-20 15 -69 55 -109 88 -60 51 -75
69 -88 111 -13 41 -55 325 -55 368 0 7 13 -9 28 -34 15 -25 74 -115 131 -200z
m-6175 5 c-65 -175 -144 -324 -172 -324 -13 0 -14 15 -8 109 8 145 14 170 35
164 10 -2 41 21 86 66 39 38 73 66 78 62 4 -4 -4 -39 -19 -77z m74 -3259 c6
-27 10 -51 9 -52 -2 -1 -31 5 -67 14 -63 16 -63 17 -40 32 12 9 34 28 48 43
15 15 29 24 33 20 4 -4 12 -29 17 -57z m5895 18 c-3 -18 -9 -33 -14 -33 -5 0
-6 12 -3 28 13 53 25 57 17 5z m262 8 c18 -16 39 -31 46 -33 22 -7 -1 -28 -31
-28 -16 0 -32 -4 -35 -10 -3 -5 -15 -10 -26 -10 -15 0 -19 5 -15 18 3 9 8 34
12 55 3 20 9 37 11 37 3 0 20 -13 38 -29z m-4150 -708 c66 -13 184 -37 261
-53 262 -54 396 -65 754 -65 268 1 359 5 520 23 195 22 413 57 545 87 39 9
131 18 205 22 126 5 139 4 188 -17 31 -13 68 -40 88 -64 l36 -41 -5 -120 c-6
-150 -31 -249 -96 -380 -108 -217 -301 -373 -578 -467 -226 -77 -298 -83 -491
-42 -50 10 -183 169 -150 178 7 2 62 9 121 15 211 23 425 91 582 185 167 100
276 214 403 420 42 68 55 82 103 105 69 33 85 68 49 106 -58 62 -167 71 -224
17 -24 -23 -55 -35 -136 -55 -516 -126 -1237 -154 -1810 -72 -273 40 -526 95
-576 126 -39 24 -122 25 -170 3 -35 -17 -64 -49 -64 -70 0 -25 48 -62 90 -69
33 -6 46 -14 59 -37 45 -82 153 -239 199 -290 194 -211 483 -334 886 -378 55
-6 101 -12 103 -14 8 -7 -124 -134 -155 -150 -119 -61 -393 -50 -580 23 -317
125 -633 407 -688 614 -29 110 -10 328 36 402 27 43 77 74 138 85 70 12 221 1
357 -27z m0 -283 c551 -115 1142 -140 1705 -74 201 23 497 78 529 98 22 14 21
-18 -3 -57 -37 -63 -71 -94 -126 -118 -27 -12 -47 -25 -44 -30 3 -6 21 0 40
12 59 36 48 15 -34 -62 -219 -207 -531 -300 -1007 -300 -444 0 -731 76 -967
257 -57 44 -139 139 -205 237 -40 60 -41 71 -5 62 15 -4 68 -15 117 -25z
m-962 -1111 c61 -55 144 -124 182 -153 149 -112 278 -204 374 -266 80 -51 97
-66 84 -74 -33 -18 -137 -10 -233 19 -83 25 -111 28 -217 28 -89 0 -127 -4
-142 -15 -20 -14 -20 -15 13 -31 19 -8 51 -19 72 -22 90 -16 287 -94 399 -159
183 -107 413 -320 519 -481 31 -47 56 -87 56 -89 0 -3 14 -25 30 -49 17 -25
30 -50 30 -56 0 -6 5 -11 10 -11 6 0 10 -9 10 -20 0 -11 5 -20 10 -20 6 0 10
-7 10 -15 0 -8 4 -23 9 -33 65 -133 107 -286 136 -496 22 -157 24 -148 -32
-144 l-48 3 0 107 0 107 -34 35 c-40 41 -78 52 -124 36 -55 -17 -75 -48 -86
-124 -5 -37 -12 -70 -14 -73 -9 -8 -121 84 -200 163 -104 106 -154 176 -226
316 -60 116 -69 138 -53 138 16 0 210 -190 280 -275 41 -49 81 -94 89 -98 19
-11 51 1 63 23 15 29 -57 127 -195 265 -277 278 -521 398 -895 439 -133 15
-178 26 -253 62 -30 14 -39 26 -48 58 -6 23 -27 75 -46 116 -52 110 -59 133
-79 269 -17 119 -17 126 0 212 10 50 31 113 48 144 29 55 124 149 175 175 15
8 39 21 52 30 27 17 129 58 149 59 7 1 63 -44 125 -100z m4233 51 c253 -134
329 -304 280 -625 -10 -63 -28 -120 -59 -191 -25 -55 -50 -119 -56 -142 -10
-36 -18 -44 -64 -65 -66 -31 -125 -44 -257 -56 -247 -23 -460 -103 -647 -242
-153 -113 -372 -336 -411 -416 -14 -30 -14 -34 3 -53 29 -32 50 -24 106 42
129 151 297 318 321 318 24 0 -93 -226 -172 -331 -93 -124 -326 -320 -364
-306 -8 3 -26 43 -42 89 -35 105 -65 138 -126 138 -48 0 -100 -27 -119 -61
-17 -32 -13 -88 10 -150 29 -74 27 -81 -11 -77 l-33 3 3 80 c3 78 14 138 53
282 10 39 19 79 19 88 0 9 9 35 20 57 11 23 20 46 20 52 0 20 95 194 152 277
64 95 219 258 313 330 90 70 255 176 332 213 83 41 175 84 268 126 102 46 108
48 135 56 39 10 52 24 39 40 -20 24 -141 13 -316 -28 -84 -20 -97 -21 -160 -9
-120 24 -122 18 31 120 178 118 352 247 442 327 160 143 177 154 207 148 16
-3 53 -19 83 -34z m-3244 -709 c24 -11 59 -26 79 -35 55 -24 277 -95 318 -102
20 -3 62 -13 94 -20 32 -8 102 -19 155 -25 54 -5 129 -14 167 -19 93 -12 322
-12 415 1 41 6 118 14 170 18 52 5 122 15 155 24 33 8 80 20 105 26 119 29
286 85 304 102 6 5 18 9 28 9 10 0 32 9 50 20 35 21 101 25 188 11 l45 -7 -35
-18 c-107 -57 -257 -201 -384 -370 -91 -120 -130 -191 -201 -361 -15 -37 -49
-156 -71 -250 -9 -38 -19 -76 -24 -84 -10 -18 -95 -48 -205 -73 -263 -58 -597
-47 -815 28 -25 9 -63 21 -85 27 -22 7 -43 16 -46 20 -4 5 -9 34 -12 65 -4 32
-13 80 -22 107 -9 28 -25 79 -36 115 -12 36 -24 74 -28 85 -15 38 -95 200
-116 235 -118 193 -230 338 -325 422 l-61 53 38 6 c72 12 113 9 155 -10z"/>
<path d="M8130 10075 c68 -24 126 -43 128 -41 5 5 -126 57 -183 72 -92 25 -71
13 55 -31z"/>
<path d="M4726 8199 c-173 -20 -351 -90 -546 -216 -116 -75 -291 -253 -353
-357 -26 -43 -45 -81 -42 -84 3 -3 18 6 33 19 87 81 374 237 528 288 167 56
222 65 429 65 271 1 459 -33 841 -151 167 -51 184 -54 210 -42 24 12 30 22 32
54 5 60 -27 153 -65 191 -34 34 -132 85 -250 130 -236 89 -573 132 -817 103z"/>
<path d="M7645 8198 c-209 -19 -415 -76 -588 -163 -118 -59 -149 -92 -172
-183 -21 -80 -13 -116 26 -133 27 -11 46 -7 192 39 198 63 361 103 532 133
104 18 169 23 325 23 178 0 204 -2 301 -26 213 -54 457 -173 640 -313 32 -26
59 -43 59 -39 0 11 -52 91 -113 174 -109 149 -280 285 -468 374 -243 115 -420
143 -734 114z"/>
<path d="M4679 7290 c-54 -10 -105 -23 -115 -30 -18 -11 -18 -11 1 -5 11 4 79
9 150 12 185 7 425 -18 527 -56 l53 -20 -30 24 c-28 23 -67 38 -206 79 -74 21
-252 19 -380 -4z"/>
<path d="M7698 7300 c-90 -15 -237 -73 -253 -101 -4 -6 6 -4 22 4 78 41 331
71 537 65 166 -6 172 5 14 27 -110 16 -243 18 -320 5z"/>
<path d="M4585 7180 c-202 -31 -406 -138 -547 -286 -86 -92 -208 -292 -208
-343 0 -23 101 -159 170 -229 134 -136 201 -147 675 -112 177 13 295 7 503
-26 297 -47 362 -32 532 121 37 33 81 67 97 76 49 27 51 62 8 166 -159 385
-330 533 -710 615 -104 22 -420 33 -520 18z m95 -177 c-104 -37 -204 -188
-217 -327 -14 -148 76 -324 183 -361 l39 -13 -60 -8 c-33 -4 -136 -8 -230 -9
-159 0 -173 2 -217 24 -26 12 -66 40 -88 62 -43 42 -90 125 -90 160 0 12 16
56 36 98 29 60 55 94 124 163 73 72 102 93 181 131 52 25 105 47 119 50 14 3
45 11 70 17 49 12 143 27 175 28 11 0 0 -7 -25 -15z m522 -32 c132 -44 212
-93 306 -188 45 -46 82 -88 82 -93 0 -5 13 -29 28 -54 16 -24 39 -76 52 -115
l24 -71 -53 -54 c-84 -85 -186 -126 -316 -126 -71 0 -205 16 -214 26 -3 2 17
24 45 48 125 109 169 311 101 459 -42 93 -85 144 -141 172 -42 20 -47 24 -25
25 14 0 64 -13 111 -29z m-335 -46 l43 -26 0 -68 c0 -54 -4 -71 -21 -90 -60
-64 -173 -51 -205 24 -20 49 -17 94 8 131 41 60 104 70 175 29z"/>
<path d="M7738 7179 c-96 -11 -244 -49 -334 -85 -170 -67 -323 -212 -412 -390
-53 -105 -102 -231 -102 -262 0 -31 26 -60 78 -86 18 -9 38 -26 45 -37 18 -30
120 -107 174 -132 65 -30 230 -30 398 0 158 28 341 37 495 24 328 -29 455 -24
543 20 22 12 65 44 95 72 53 51 192 228 192 245 0 5 -12 36 -27 68 -99 221
-324 436 -536 512 -158 57 -386 76 -609 51z m472 -191 c115 -27 270 -103 343
-168 96 -86 195 -255 182 -308 -17 -67 -97 -161 -170 -200 -49 -26 -55 -27
-220 -27 -93 0 -197 4 -230 9 -57 8 -59 9 -30 19 93 30 185 196 185 332 0 157
-101 318 -229 362 -34 12 -33 13 24 7 33 -3 98 -15 145 -26z m-540 2 c-8 -5
-26 -10 -39 -10 -34 0 -109 -80 -144 -154 -16 -32 -34 -85 -40 -118 -26 -144
51 -331 162 -388 l36 -18 -28 -11 c-16 -6 -79 -14 -140 -17 -183 -11 -277 19
-381 120 -31 29 -56 56 -56 60 0 3 14 40 31 83 90 227 235 362 474 439 72 24
154 33 125 14z m153 -49 c46 -18 77 -61 77 -109 0 -80 -51 -132 -130 -132 -36
0 -48 6 -81 39 -33 33 -39 45 -39 82 0 45 21 87 56 114 22 16 81 19 117 6z"/>
<path d="M6807 6704 c-8 -16 -23 -60 -33 -99 -36 -134 -12 -660 41 -897 41
-184 90 -264 80 -130 -25 324 -46 729 -55 1082 -2 67 -13 82 -33 44z"/>
<path d="M5351 3767 c2 -1 13 -9 24 -17 19 -14 19 -14 6 3 -7 9 -18 17 -24 17
-6 0 -8 -1 -6 -3z"/>
<path d="M5458 3713 c7 -3 16 -2 19 1 4 3 -2 6 -13 5 -11 0 -14 -3 -6 -6z"/>
</g>
</svg>
